<svg width="147" height="47" viewBox="0 0 147 47" fill="none" xmlns="http://www.w3.org/2000/svg">
<path d="M0 36.5582L9.34226 1.0129C9.49864 0.416227 10.04 0 10.6559 0H20.5708C21.1891 0 21.728 0.416227 21.8844 1.0129L31.2267 36.5582H24.1243L22.1394 28.5152H9.08241L7.09752 36.5582H0ZM10.7064 22.1443H20.5251L16.0861 4.3355H15.1454L10.7064 22.1443Z" fill="white"/>
<path d="M44.3391 11.0986C45.5926 10.3143 47.385 9.92212 49.7188 9.92212C51.8071 9.92212 53.7391 10.437 55.5147 11.4619C57.2903 12.4893 58.717 13.9954 59.7973 15.9803C60.8751 17.9652 61.4165 20.3663 61.4165 23.1861V24.0209C61.4165 26.8407 60.8751 29.2442 59.7973 31.2267C58.717 33.2116 57.2903 34.7177 55.5147 35.7451C53.7391 36.7724 51.8071 37.2848 49.7188 37.2848C48.1525 37.2848 46.8365 37.102 45.7755 36.7363C44.712 36.3706 43.8603 35.9014 43.2155 35.3264C42.5708 34.7514 42.0583 34.1692 41.6757 33.5773H40.735V47H34.1548V11.5918C34.1548 11.0746 34.5758 10.6535 35.0931 10.6535H40.6316V13.7861M47.7339 31.5419C49.7886 31.5419 51.4848 30.8899 52.8249 29.5834C54.165 28.277 54.8362 26.3715 54.8362 23.8645V23.3424C54.8362 20.8355 54.1577 18.9299 52.7984 17.6235C51.4414 16.3171 49.7525 15.6651 47.7315 15.6651C45.7105 15.6651 44.0239 16.3171 42.6646 17.6235C41.3076 18.9299 40.6268 20.8355 40.6268 23.3424V23.8645C40.6268 26.3715 41.3052 28.277 42.6646 29.5834C44.0215 30.8899 45.7105 31.5419 47.7315 31.5419H47.7339Z" fill="white"/>
<path d="M77.6058 37.2897C75.0291 37.2897 72.7579 36.7411 70.7898 35.644C68.8218 34.5469 67.2916 32.9999 66.1945 30.9957C65.0974 28.994 64.5488 26.6338 64.5488 23.9199V23.2919C64.5488 20.5756 65.0878 18.2178 66.168 16.2161C67.2459 14.2143 68.7616 12.6649 70.7104 11.5678C72.6592 10.4707 74.9232 9.92212 77.5 9.92212C80.0767 9.92212 82.2517 10.4875 84.1332 11.6183C86.0122 12.7491 87.475 14.3178 88.5192 16.3195C89.5634 18.3212 90.0854 20.6454 90.0854 23.2919V25.5367H71.2325C71.3023 27.3122 71.9639 28.7582 73.2174 29.8722C74.4709 30.9861 76.0035 31.5443 77.8128 31.5443C79.622 31.5443 81.0151 31.1449 81.886 30.3437C82.757 29.5425 83.4186 28.6548 83.8709 27.6803L89.2506 30.5001C88.7622 31.4047 88.0572 32.3888 87.1358 33.4498C86.2119 34.5132 84.9849 35.4178 83.4547 36.1661C81.9221 36.9143 79.9733 37.2897 77.6058 37.2897ZM71.2879 20.6309H83.4042C83.2646 19.1345 82.6631 17.9339 81.6021 17.0269C80.5387 16.1222 79.1553 15.6675 77.4495 15.6675C75.7437 15.6675 74.264 16.1198 73.2198 17.0269C72.1756 17.9315 71.5309 19.1345 71.2879 20.6309Z" fill="white"/>
<path d="M110.242 23.5013L119.536 10.656H111.912L107.355 17.3132C107.355 17.3132 107.346 17.3325 107.338 17.3373C105.447 20.3856 102.05 24.3626 98.6673 27.4567C97.3681 28.6452 96.1916 29.9588 95.1619 31.388L91.4375 36.5583H99.1678L104.538 28.6187C104.867 28.1303 105.707 28.2627 106.297 28.2627L106.01 27.8392L111.91 36.5607H119.638L110.238 23.5037L110.242 23.5013ZM102.543 11.4861C102.416 10.9976 101.973 10.656 101.468 10.656H92.4937L102.94 22.0385" fill="white"/>
<path d="M132.69 37.2897C130.113 37.2897 127.799 36.7676 125.744 35.7234C123.689 34.6792 122.07 33.1635 120.886 31.1786C119.703 29.1937 119.111 26.8094 119.111 24.0233V23.1885C119.111 20.4024 119.703 18.0181 120.886 16.0332C122.07 14.0483 123.689 12.535 125.744 11.4884C127.799 10.4442 130.113 9.92212 132.69 9.92212C135.267 9.92212 137.581 10.4442 139.636 11.4884C141.691 12.5326 143.31 14.0483 144.493 16.0332C145.677 18.0181 146.269 20.4024 146.269 23.1885V24.0233C146.269 26.8094 145.677 29.1937 144.493 31.1786C143.31 33.1635 141.691 34.6792 139.636 35.7234C137.581 36.7676 135.267 37.2897 132.69 37.2897ZM132.69 31.4408C134.709 31.4408 136.381 30.7888 137.704 29.4824C139.027 28.176 139.689 26.3066 139.689 23.8693V23.3473C139.689 20.91 139.037 19.0382 137.73 17.7342C136.424 16.4278 134.745 15.7758 132.69 15.7758C130.635 15.7758 128.999 16.4278 127.676 17.7342C126.353 19.0406 125.691 20.9124 125.691 23.3473V23.8693C125.691 26.3066 126.353 28.1784 127.676 29.4824C128.999 30.7888 130.669 31.4408 132.69 31.4408Z" fill="white"/>
</svg>
