<svg width="424" height="368" viewBox="0 0 424 368" fill="none" xmlns="http://www.w3.org/2000/svg">
<path d="M208.827 279.103C207.101 273.052 205.171 266.134 200.104 262.098C199.311 261.461 197.954 262.312 198.642 263.267C202.278 268.928 204.854 275.203 206.244 281.785C210.27 296.697 209.429 298.869 211.557 303.274C211.891 303.965 213.286 303.962 213.407 303.032C213.655 299.803 213.342 296.555 212.481 293.432C211.92 292.136 212.143 290.693 208.827 279.103Z" fill="#AFF46A"/>
<path d="M240.758 271.014C240.699 270.824 240.592 270.653 240.446 270.518C240.301 270.383 240.122 270.288 239.929 270.244C239.735 270.199 239.533 270.207 239.344 270.264C239.154 270.322 238.982 270.429 238.847 270.574C237.624 272.818 237.018 275.346 237.092 277.9C236.122 286.687 236.583 295.574 238.458 304.214C238.722 305.396 240.688 305.192 240.554 303.921C239.348 294.308 239.381 284.58 240.649 274.976C241.025 273.686 241.062 272.322 240.758 271.014Z" fill="#AFF46A"/>
<path d="M372.712 249.135C368.034 243.762 366.342 239.029 362.919 240.804C362.271 241.23 361.745 241.819 361.394 242.511C361.044 243.203 360.88 243.975 360.918 244.75C359.603 243.68 357.985 242.778 356.679 243.387C354.962 244.186 354.876 246.116 355.268 247.82C352.293 246.845 350.558 250.155 351.223 252.792C352.182 256.031 354.103 258.902 356.73 261.025C358.59 262.576 362.32 265.446 364.527 263.121C365.737 261.847 363.807 259.917 362.578 261.172C361.903 261.863 358.533 259.028 358.045 258.589C356.638 257.321 355.481 255.801 354.634 254.107C354.29 253.426 353.172 251.378 353.854 250.696C354.634 249.916 356.15 251.712 356.631 252.158C358.383 253.85 359.981 255.692 361.409 257.665C362.364 258.862 364.422 257.283 363.555 256.009C361.852 253.502 362.1 254.311 359.657 250.594C358.979 249.569 357.17 247.282 357.854 245.919C359.266 246.602 360.474 247.643 361.358 248.938C362.006 251.249 363.27 253.341 365.014 254.989C365.245 255.201 365.543 255.325 365.856 255.339C366.169 255.353 366.477 255.257 366.726 255.068C366.976 254.878 367.151 254.607 367.221 254.302C367.291 253.996 367.252 253.676 367.11 253.397C366.149 251.438 365.024 249.564 363.747 247.795C363.435 246.45 363.419 245.054 363.699 243.702C364.119 243.008 364.524 243.313 365.11 243.797C366.164 244.667 365.747 245.027 369.349 249.11C370.626 250.956 372.289 252.502 374.222 253.642C374.706 253.846 375.537 253.496 375.295 252.814C374.667 251.44 373.792 250.193 372.712 249.135Z" fill="white"/>
<path d="M423.295 226.624C423.132 222.288 421.61 218.112 418.944 214.688C416.278 211.263 412.604 208.763 408.44 207.541C404.277 206.318 399.834 206.435 395.74 207.874C391.646 209.313 388.108 212.003 385.626 215.562C380.849 221.932 379.154 229.602 374.128 236.176C372.46 238.097 370.616 239.858 368.622 241.437C368.134 241.877 368.669 242.559 369.204 242.412C376.829 240.867 381.441 229.353 384.215 223.799C385.966 219.709 388.653 216.087 392.06 213.225C395.464 210.763 399.608 209.541 403.803 209.763C407.835 210.046 411.651 211.69 414.625 214.426C417.6 217.162 419.558 220.827 420.177 224.821C420.727 229.218 419.647 233.663 417.142 237.318C414.637 240.972 410.879 243.582 406.58 244.654C397.662 246.944 385.171 241.055 378.61 249.964C378.033 250.75 379.186 251.419 379.83 250.89C387.442 244.626 399.175 250.661 409.358 247.091C413.548 245.594 417.155 242.805 419.66 239.127C422.164 235.449 423.437 231.071 423.295 226.624Z" fill="white"/>
<path d="M400.004 222.579C402.001 222.92 401.221 224.528 400.052 225.942C398.325 226.304 396.737 227.149 395.472 228.379C394.198 229.694 394.937 231.841 396.934 231.497C398.081 231.1 399.105 230.412 399.905 229.5C400.495 228.968 401.125 228.427 401.66 227.841C403.307 227.841 402.896 228.739 401.756 229.936C400.597 230.538 399.57 231.367 398.737 232.373C398.553 232.576 398.447 232.838 398.437 233.112C398.428 233.386 398.515 233.654 398.685 233.87C398.854 234.085 399.094 234.234 399.362 234.29C399.63 234.346 399.909 234.306 400.151 234.176C401.326 233.531 402.407 232.728 403.364 231.79C403.618 231.702 403.879 231.636 404.145 231.593C406.482 231.303 405.705 233.542 404.632 234.663C403.472 235.533 402.152 236.166 400.748 236.525C399.343 236.885 397.882 236.964 396.447 236.759C391.962 236.848 386.309 237.004 383.582 241.097C383.095 241.826 384.063 242.842 384.799 242.313C392.338 236.921 399.858 241.316 405.412 237.052C407.454 235.485 409.476 231.733 406.728 229.79C406.213 229.419 405.606 229.198 404.973 229.153C405.021 229.054 405.021 228.955 405.072 228.908C405.208 228.569 405.265 228.203 405.238 227.839C405.211 227.475 405.101 227.122 404.917 226.807C404.732 226.491 404.478 226.223 404.174 226.021C403.869 225.819 403.523 225.69 403.161 225.643C405.008 221.33 400.931 218.317 395.803 221.111C390.612 223.945 382.022 237.752 375.629 242.648C375.535 242.711 375.468 242.807 375.442 242.917C375.416 243.027 375.432 243.143 375.487 243.242C375.543 243.34 375.634 243.414 375.742 243.449C375.849 243.483 375.966 243.476 376.069 243.428C386.777 238.635 393.835 221.525 400.004 222.579Z" fill="white"/>
<path d="M115.864 248.161C106.918 241.966 111.915 242.916 63.4808 212.591C63.278 212.481 63.0478 212.431 62.8175 212.448C62.5872 212.465 62.3667 212.547 62.182 212.686C61.9974 212.824 61.8566 213.013 61.7762 213.23C61.6959 213.446 61.6795 213.681 61.729 213.907C64.0987 221.398 66.7454 228.768 69.2329 236.224C60.1578 234.159 50.963 232.661 41.7017 231.739C41.3181 231.65 40.915 231.706 40.5703 231.897C40.2256 232.087 39.9637 232.399 39.8353 232.771C39.6869 233.142 39.6864 233.555 39.834 233.925C39.9816 234.296 40.266 234.595 40.6284 234.762C55.1061 241.832 70.5861 246.631 86.5242 248.989C86.7578 249.04 87.0008 249.023 87.2256 248.942C87.4503 248.861 87.6477 248.718 87.7951 248.53C87.9426 248.342 88.0342 248.117 88.0596 247.879C88.0849 247.641 88.0429 247.402 87.9384 247.187C84.8553 242.031 81.785 236.866 78.7274 231.692C104.997 244.712 108.313 246.951 115.422 249.381C116.113 249.614 116.498 248.553 115.864 248.161Z" fill="#AFF46A"/>
<path d="M133.064 78.0021C131.969 74.3808 133.099 55.5447 126.924 18.9936C126.865 18.7931 126.75 18.6139 126.591 18.4783C126.432 18.3428 126.237 18.2566 126.03 18.2305C125.822 18.2045 125.612 18.2396 125.425 18.3316C125.237 18.4236 125.081 18.5685 124.974 18.7484C120.996 26.4115 116.888 34.0364 113.19 41.846C110.777 38.5788 108.258 35.3921 105.635 32.291C103.666 29.3186 101.093 26.7944 98.0834 24.8827C97.2553 24.4909 95.8539 25.1757 96.2807 26.2459C101.24 38.3489 106.74 50.162 112.263 61.9656C112.763 63.0326 114.174 62.5517 114.493 61.6726C116.652 56.0766 119.805 51.0029 122.337 45.5915C124.333 56.7972 127.317 67.8041 131.255 78.483C131.682 79.5659 133.402 79.1232 133.064 78.0021Z" fill="#AFF46A"/>
<path d="M283.557 89.2042C284.047 89.4132 284.594 89.4515 285.109 89.3129C285.624 89.1743 286.078 88.8668 286.398 88.4398C297.797 73.2155 309.686 56.9083 321.939 42.4292C322.094 42.2573 322.188 42.0401 322.21 41.81C322.231 41.5798 322.177 41.349 322.056 41.1518C321.936 40.9546 321.755 40.8017 321.54 40.7156C321.326 40.6296 321.089 40.6151 320.866 40.6743C313.422 42.9038 306.052 45.4518 298.842 48.3725C300.399 40.9196 302.011 33.4348 303.469 25.9596C303.737 24.6028 301.259 23.2014 300.545 24.5932C294.281 36.8364 287.872 49.0318 281.493 61.1889C281.06 62.0202 281.783 63.4184 282.859 62.9916C289.373 60.3934 295.793 57.5655 302.106 54.5131C289.455 75.738 286.207 80.8244 282.834 87.1466C282.737 87.3276 282.679 87.5265 282.664 87.7309C282.648 87.9353 282.676 88.1407 282.743 88.3341C282.811 88.5275 282.919 88.7047 283.059 88.8545C283.199 89.0043 283.368 89.1233 283.557 89.2042Z" fill="#AFF46A"/>
<path d="M261.319 315.409C227.806 316.893 193.16 316.008 161.135 306.539C151.389 303.672 139.945 299.079 136.817 288.314C133.661 277.444 142.936 268.819 151.338 263.79C153.686 262.401 156.058 261.054 158.453 259.748C159.428 259.21 158.552 257.853 157.577 258.286C147.659 262.678 136.161 268.366 133.553 280.065C131.046 291.318 139.458 300.767 148.952 305.357C154.425 307.822 160.118 309.764 165.957 311.157C195.778 319.119 228.568 319.928 259.277 318.661C251.168 333.395 249.404 349.584 249.531 366.025C249.531 367.436 251.528 367.34 251.675 366.025C253.443 349.995 254.987 332.547 263.224 318.514C274.285 318.027 285.837 317.626 296.262 313.593C301.317 311.943 305.864 309.023 309.467 305.112C321.012 290.442 281.171 284.212 261.319 315.409ZM308.199 300.984C307.177 304.672 300.364 308.383 296.848 309.902C286.309 314.447 274.591 314.418 265.316 315.262C272.349 305.07 284.089 297.035 296.647 296.5C299.38 296.385 309.473 296.347 308.199 300.984Z" fill="white"/>
<path d="M412.03 45.1967C399.255 8.99603 291.433 -19.2358 238.065 19.2231C231.638 23.8572 223.344 30.4311 223.79 39.2026C224.223 47.7798 231.921 53.5351 239.626 55.4302C244.27 56.4004 249.025 56.7283 253.758 56.4048C254.013 56.3904 254.253 56.2789 254.428 56.0932C254.604 55.9075 254.702 55.6617 254.702 55.4063C254.702 55.1508 254.604 54.905 254.428 54.7193C254.253 54.5337 254.013 54.4222 253.758 54.4078C245.388 53.5574 235.702 53.2166 229.928 46.2191C228.7 44.8409 227.824 43.1859 227.374 41.3955C226.925 39.6052 226.916 37.7326 227.348 35.938C228.723 32.094 231.175 28.7272 234.412 26.2396C269.447 -4.65487 337.542 0.727775 376.358 18.7867C391.837 25.988 407.905 35.422 410.323 52.2611C412.928 70.4156 401.258 91.685 371.584 102.208C360.06 95.4124 346.6 92.652 333.332 94.3636C329.87 94.7713 323.016 95.7714 320.321 97.969C319.661 98.5506 319.122 99.2567 318.735 100.047C318.348 100.837 318.121 101.696 318.067 102.574C318.012 103.452 318.132 104.332 318.418 105.164C318.704 105.996 319.152 106.763 319.735 107.422C322.452 110.942 327.143 111.368 331.236 111.518C344.71 112.027 358.164 110.094 370.95 105.814C387.668 116.961 389.487 135.931 379.575 146.454C374.415 151.333 368.143 154.88 361.303 156.786C357.987 157.908 354.525 159.115 351.111 159.952C350.954 159.994 350.807 160.066 350.678 160.165C350.549 160.264 350.441 160.387 350.359 160.527C350.278 160.668 350.225 160.823 350.204 160.984C350.182 161.145 350.193 161.308 350.235 161.465C350.277 161.622 350.349 161.769 350.448 161.898C350.546 162.027 350.669 162.135 350.81 162.216C350.95 162.298 351.105 162.351 351.266 162.372C351.427 162.393 351.591 162.383 351.748 162.341C355.738 161.341 359.691 160.682 363.637 159.417C375.205 155.707 385.932 148.646 388.442 136.708C390.799 125.532 386.372 112.986 374.797 104.355C408.59 91.6978 418.836 64.4692 412.03 45.1967ZM341.578 108.164C336.606 108.438 325.873 109.18 322.767 105.826C322.109 105.248 321.679 104.454 321.554 103.587C321.429 102.72 321.618 101.837 322.086 101.097C323.393 99.9342 325.027 99.2035 326.764 99.0041C340.42 95.6887 354.81 97.3463 367.354 103.68C358.973 106.205 350.319 107.71 341.578 108.164Z" fill="white"/>
<path d="M65.8206 281.104C50.574 271.867 33.0151 262.631 24.7915 245.97C19.8738 236.026 19.7719 224.774 20.7465 214.002C21.2649 205.247 23.4258 196.669 27.1165 188.713C27.2165 188.47 27.3471 188.241 27.5051 188.031C31.6284 188.34 35.7698 187.756 39.6466 186.318C43.5234 184.88 47.0443 182.622 49.9689 179.7C53.6794 175.511 49.7746 170.145 44.7073 170.39C39.8803 171.112 35.4266 173.407 32.0373 176.919C29.5565 179.274 27.4388 181.984 25.7533 184.961C17.5169 184.133 8.52248 179.932 4.70048 172.39C-0.0037631 163.106 3.53478 139.244 27.1643 118.981C36.7193 110.802 48.7076 104.011 61.5177 96.3672C61.6826 96.2564 61.7995 96.0873 61.8448 95.8939C61.8902 95.7005 61.8608 95.4971 61.7624 95.3246C61.664 95.152 61.504 95.023 61.3144 94.9636C61.1249 94.9041 60.9199 94.9185 60.7406 95.004C40.0572 105.393 18.4501 117.84 6.94273 138.81C1.98368 147.85 -1.78099 161.316 0.94856 170.727C3.76092 180.429 14.4944 186.334 23.9506 187.687C24.0462 187.687 24.1927 187.735 24.2914 187.735C17.9425 202.647 15.8383 219.023 18.2113 235.055C21.7593 255.499 39.7036 270.31 58.1766 279.349C60.4667 280.47 62.7822 281.489 65.0467 282.613C65.2446 282.698 65.4671 282.704 65.6694 282.631C65.8716 282.557 66.0387 282.41 66.1368 282.219C66.2349 282.027 66.2569 281.806 66.1982 281.599C66.1395 281.392 66.0046 281.215 65.8206 281.104ZM34.4866 178.674C37.2639 176.161 43.5097 171.985 46.8635 173.654C52.2239 176.336 42.9205 181.556 40.5795 182.62C37.0041 184.209 33.1377 185.039 29.225 185.057C30.6711 182.693 32.4423 180.544 34.4866 178.674Z" fill="white"/>
<path d="M337.727 178.187C336.564 173.477 334.063 169.205 330.526 165.885C326.99 162.565 322.568 160.339 317.795 159.475C316.104 151.89 311.662 145.2 305.326 140.7C298.99 136.2 291.211 134.208 283.492 135.11C282.805 129.464 280.875 124.041 277.842 119.23C274.808 114.419 270.747 110.34 265.95 107.285C258.194 102.428 246.84 101.049 240.708 107.824C239.665 104.279 237.814 101.025 235.3 98.3173C232.786 95.6094 229.678 93.5216 226.221 92.218C222.764 90.9145 219.051 90.4307 215.375 90.8047C211.699 91.1787 208.16 92.4003 205.036 94.3735C201.682 90.9084 197.594 88.2382 193.072 86.5588C188.551 84.8793 183.711 84.2332 178.908 84.6679C174.104 85.1025 169.459 86.6068 165.313 89.0705C161.167 91.5342 157.624 94.8948 154.946 98.9058C147.677 96.3701 139.744 96.4968 132.56 99.2632C125.376 102.03 119.407 107.256 115.716 114.012C110.487 113.982 105.332 115.243 100.708 117.684C96.0833 120.124 92.1329 123.668 89.2071 128.002C86.2813 132.336 84.4705 137.324 83.9355 142.526C83.4005 147.727 84.1579 152.98 86.1403 157.819C83.3947 163.184 81.9459 169.119 81.9103 175.147C81.8748 181.174 83.2535 187.126 85.9356 192.523C88.6178 197.921 92.5286 202.614 97.3539 206.226C102.179 209.838 107.784 212.268 113.719 213.32C114.191 218.459 116.034 223.377 119.055 227.561C122.075 231.745 126.163 235.042 130.892 237.108C135.621 239.173 140.818 239.932 145.94 239.305C151.062 238.678 155.922 236.688 160.013 233.542C175.301 258.385 201.807 265.953 220.824 257.127C221.415 256.699 222.127 256.474 222.855 256.483C223.584 256.492 224.29 256.736 224.869 257.178C230.523 260.49 236.176 263.755 241.779 267.071L241.342 266.778C271.546 279.352 304.007 265.07 303.615 245.091C308.353 244.855 312.958 243.452 317.022 241.006C321.086 238.561 324.483 235.149 326.91 231.074C329.337 226.999 330.719 222.387 330.934 217.649C331.148 212.911 330.189 208.193 328.14 203.915C332 200.966 334.948 196.986 336.645 192.434C338.341 187.882 338.716 182.943 337.727 178.187ZM263.172 140.18C273.246 142.324 275.696 154.401 269.701 159.134C269.563 159.273 269.378 159.357 269.183 159.37C268.987 159.383 268.793 159.324 268.637 159.205C268.481 159.086 268.374 158.914 268.336 158.722C268.297 158.529 268.33 158.33 268.427 158.159C272.813 148.286 266.424 139.846 252.821 143.786C248.143 145.293 243.842 147.787 240.211 151.099C236.579 154.411 233.701 158.464 231.771 162.985C231.43 163.714 230.309 163.179 230.497 162.45C234.348 147.987 251.021 137.594 263.172 140.18ZM218.827 140.817C218.611 127.045 228.003 114.184 237.979 110.993C238.711 110.76 239.046 111.764 238.466 112.162C235.855 113.848 233.394 115.756 231.109 117.863C227.889 120.971 225.371 124.731 223.723 128.891C222.075 133.052 221.335 137.516 221.554 141.986C221.554 142.348 221.41 142.694 221.155 142.95C220.899 143.206 220.552 143.349 220.191 143.349C217.827 143.519 215.527 144.198 213.451 145.341C211.375 146.484 209.57 148.064 208.163 149.97C206.755 151.877 205.777 154.066 205.296 156.387C204.815 158.708 204.843 161.106 205.377 163.415C205.431 163.616 205.438 163.828 205.397 164.032C205.356 164.237 205.268 164.429 205.14 164.595C205.013 164.76 204.849 164.893 204.661 164.985C204.473 165.076 204.267 165.123 204.059 165.122C201.776 165.197 199.534 165.742 197.472 166.723C195.41 167.704 193.572 169.1 192.073 170.823C189.099 174.254 187.41 178.613 187.296 183.152C187.108 184.175 185.589 184.031 185.299 183.152C182.999 176.145 190.838 163.724 202.453 162.539C202.091 160.036 202.228 157.486 202.857 155.036C203.485 152.586 204.593 150.285 206.115 148.265C207.637 146.246 209.544 144.548 211.726 143.269C213.908 141.99 216.322 141.155 218.827 140.814V140.817ZM184.232 162.157C183.458 159.92 182.195 157.885 180.534 156.198C178.873 154.512 176.857 153.218 174.632 152.411C174.47 152.354 174.336 152.239 174.255 152.088C174.174 151.937 174.153 151.761 174.196 151.596C174.239 151.43 174.342 151.286 174.487 151.193C174.631 151.101 174.804 151.066 174.973 151.095C182.974 152.143 189.048 162.447 186.911 166.383C186.829 166.517 186.714 166.627 186.578 166.704C186.441 166.781 186.287 166.821 186.13 166.821C185.974 166.821 185.819 166.781 185.683 166.704C185.546 166.627 185.432 166.517 185.35 166.383C184.812 165.023 184.437 163.605 184.232 162.157ZM176.588 108.311C184.49 106.056 196.491 109.353 204.215 114.305C206.14 115.286 207.646 116.929 208.454 118.933C208.736 119.797 208.747 120.728 208.486 121.599C208.225 122.47 207.703 123.24 206.992 123.806C205.237 125.169 202.851 125.647 200.94 126.876C199.23 127.988 197.755 130.036 195.778 130.628C195.651 130.659 195.519 130.661 195.392 130.633C195.265 130.606 195.145 130.551 195.042 130.472C194.939 130.392 194.856 130.291 194.797 130.174C194.739 130.058 194.707 129.93 194.704 129.8C194.994 126.631 199.233 124.191 201.82 122.978C203.377 122.245 206.444 121.761 205.473 119.373C204.74 117.57 202.316 116.379 200.695 115.423C193.347 111.471 185.112 109.459 176.77 109.579C176.601 109.604 176.43 109.561 176.294 109.459C176.157 109.358 176.067 109.207 176.042 109.039C176.017 108.871 176.06 108.7 176.161 108.563C176.262 108.427 176.414 108.336 176.582 108.311H176.588ZM148.13 110.859C148.413 108.414 149.171 106.048 150.359 103.893C150.745 103.158 151.876 103.699 151.675 104.429C151.055 106.722 150.648 109.067 150.458 111.436C150.625 113.56 150.56 115.696 150.264 117.806C150.219 117.942 150.137 118.062 150.026 118.154C149.916 118.246 149.783 118.306 149.641 118.326C149.499 118.346 149.354 118.326 149.223 118.269C149.092 118.211 148.979 118.118 148.898 118C147.796 115.782 147.522 113.245 148.124 110.843L148.13 110.859ZM152.952 121.921C155.876 121.577 159.819 121.698 161.577 124.357C161.657 124.495 161.699 124.651 161.699 124.81C161.7 124.97 161.658 125.126 161.579 125.264C161.5 125.403 161.386 125.518 161.249 125.598C161.112 125.679 160.956 125.722 160.797 125.723C157.875 124.694 154.739 124.425 151.684 124.943C145.03 126.228 138.81 129.179 133.606 133.52C132.509 134.627 131.559 135.871 130.781 137.221C130.304 138.075 129.38 140.82 128.004 139.903C127.615 139.562 127.625 139.266 127.711 138.734C127.765 138.393 128.348 138.489 128.297 138.83C128.345 138.489 128.147 138.244 128.297 137.709C130.036 131.479 136.259 127.459 142.231 125.042C145.648 123.526 149.251 122.471 152.946 121.905L152.952 121.921ZM125.032 118.315C127.139 118.492 129.158 119.233 130.88 120.459C132.342 121.382 134.434 122.65 134.485 124.599C134.485 124.705 134.46 124.809 134.411 124.903C134.363 124.997 134.293 125.079 134.208 125.141C134.122 125.203 134.023 125.244 133.918 125.261C133.814 125.277 133.707 125.269 133.606 125.236C132.014 124.918 130.74 123.195 129.466 122.312C127.95 121.249 126.239 120.624 124.641 119.631C124.51 119.546 124.409 119.422 124.354 119.276C124.3 119.13 124.293 118.971 124.337 118.821C124.38 118.672 124.471 118.54 124.595 118.446C124.719 118.352 124.87 118.3 125.026 118.299L125.032 118.315ZM106.515 138.734C113.366 136.791 120.003 139.964 125.274 144.238C128.176 146.409 130.529 149.23 132.144 152.474C133.709 155.573 134.304 159.072 133.852 162.513C133.805 162.674 133.712 162.817 133.585 162.925C133.457 163.034 133.301 163.103 133.135 163.123C132.969 163.144 132.801 163.116 132.651 163.042C132.501 162.968 132.376 162.852 132.291 162.708C129.523 157.462 132.291 153.939 123.717 146.579C121.462 144.402 118.785 142.709 115.853 141.603C112.92 140.496 109.792 140 106.661 140.145C105.875 140.218 105.779 138.922 106.508 138.718L106.515 138.734ZM99.3039 166.947C99.1615 167.169 98.9527 167.34 98.7074 167.436C98.4621 167.532 98.1927 167.548 97.9376 167.482C93.8449 166.746 88.5609 162.459 88.2424 158.08C88.245 157.963 88.2812 157.849 88.3468 157.751C88.4124 157.654 88.5045 157.578 88.6123 157.531C88.72 157.485 88.8389 157.471 88.9546 157.49C89.0703 157.509 89.178 157.561 89.2648 157.64C90.7267 159.102 91.7173 160.886 93.3098 162.22C95.0163 163.513 96.9041 164.548 98.9122 165.291C99.0974 165.387 99.251 165.535 99.3549 165.716C99.4587 165.897 99.5085 166.104 99.4982 166.313C99.4514 166.525 99.3842 166.732 99.2976 166.931L99.3039 166.947ZM121.863 196.768C116.942 196.794 113.108 193.15 110.021 189.704C106.741 186.158 104.353 181.881 103.056 177.228C99.9855 165.399 107.423 155.252 111.483 154.959C111.637 154.96 111.788 155.001 111.921 155.078C112.054 155.155 112.165 155.265 112.243 155.397C112.322 155.529 112.365 155.679 112.368 155.833C112.372 155.986 112.336 156.138 112.264 156.274C111.031 158.863 108.181 159.039 106.075 165.144C104.916 169.01 104.797 173.113 105.73 177.04C106.662 180.966 108.614 184.578 111.388 187.509C113.917 190.535 117.716 194.809 121.816 195.258C122.784 195.351 122.879 196.749 121.857 196.752L121.863 196.768ZM121.816 171.479C123.774 168.431 128.345 168.132 131.609 168.068C135.742 167.966 139.874 168.293 143.939 169.043C152.312 170.664 159.844 177.757 160.994 182.152C161.147 182.735 160.453 183.426 159.873 183.028C157.408 181.34 153.185 173.89 143.744 172.014C138.409 171.008 132.95 170.844 127.564 171.527C125.956 171.868 124.494 172.584 122.886 172.893C122.15 173.014 121.312 172.237 121.809 171.463L121.816 171.479ZM162.064 217.088C141.585 223.194 127.928 213.203 126.017 198.848C125.38 194.07 125.771 187.197 129.182 183.401C129.874 182.63 130.88 183.496 130.743 184.327C130.065 188.427 127.67 192.252 128.94 199.335C129.711 203.663 131.829 207.637 134.992 210.69C142.212 217.598 152.723 216.423 161.841 215.467C162.791 215.362 162.886 216.827 162.058 217.072L162.064 217.088ZM163.039 160.223C163.963 160.765 163.138 162.074 162.211 161.634C159.955 160.511 158.018 158.838 156.579 156.769C155.14 154.7 154.246 152.302 153.978 149.796C152.038 134.508 172.626 126.227 190.035 130.886C195.377 131.933 200.234 134.687 203.874 138.734C204.511 139.613 203.332 140.454 202.511 140.097C198.415 138.314 196.045 135.298 187.892 133.409C179.056 131.377 167.641 132.307 160.653 138.721C159.146 140.169 157.992 141.943 157.281 143.908C156.569 145.872 156.318 147.974 156.548 150.051C156.778 152.128 157.482 154.124 158.607 155.885C159.731 157.646 161.245 159.125 163.033 160.207L163.039 160.223ZM182.073 201.772C179.08 204.526 176.716 207.893 175.144 211.644C173.571 215.395 172.826 219.441 172.96 223.506C172.96 224.089 172.03 224.286 171.938 223.653C171.445 219.486 171.909 215.262 173.294 211.302C174.678 207.341 176.948 203.749 179.929 200.797C192.032 187.646 208.374 177.432 226.37 176.91C232.759 176.731 240.782 178.008 246.005 173.842C248.654 171.22 250.744 168.086 252.146 164.631C252.977 163.074 255.012 164.437 254.375 165.995C251.047 174.139 247.05 178.416 238.829 179.493C227.771 180.948 218.232 176.722 198.969 188.264C192.787 192.032 187.109 196.571 182.073 201.772ZM189.188 221.165C188.968 221.165 188.758 221.078 188.602 220.923C188.447 220.767 188.36 220.557 188.36 220.337C188.36 220.117 188.447 219.907 188.602 219.752C188.758 219.596 188.968 219.509 189.188 219.509C193.798 219.476 198.292 218.055 202.082 215.43C205.872 212.805 208.783 209.099 210.435 204.794C210.536 204.442 210.771 204.143 211.089 203.961C211.407 203.779 211.784 203.728 212.139 203.82C220.703 205.912 230.016 208.231 238.746 205.769C242.12 205.016 245.223 203.356 247.722 200.968C250.221 198.58 252.02 195.555 252.926 192.22C253.034 191.858 253.275 191.551 253.601 191.362C253.927 191.172 254.313 191.113 254.681 191.197C257.493 192.011 260.461 192.13 263.329 191.544C266.198 190.959 268.882 189.687 271.151 187.837C277.122 182.894 277.173 175.416 281.384 171.658C281.58 171.476 281.833 171.369 282.1 171.358C282.367 171.346 282.629 171.43 282.84 171.594C283.051 171.758 283.196 171.991 283.25 172.253C283.305 172.514 283.264 172.786 283.136 173.021C282.368 174.83 281.355 176.492 280.556 178.286C279.756 180.079 279.014 181.9 278.119 183.646C276.056 187.698 272.709 190.952 268.6 192.9C264.492 194.849 259.853 195.381 255.41 194.414C254.223 197.748 252.254 200.749 249.668 203.165C247.083 205.581 243.956 207.342 240.549 208.301C231.475 211.247 221.691 209.081 212.674 206.839C210.706 211.349 207.398 215.143 203.198 217.706C198.998 220.269 194.111 221.477 189.201 221.165H189.188ZM218.862 228.809C216.008 232.076 212.26 234.435 208.08 235.596C203.9 236.757 199.471 236.669 195.341 235.342C195.195 235.283 195.076 235.173 195.007 235.032C194.937 234.892 194.922 234.73 194.964 234.579C195.007 234.428 195.103 234.297 195.236 234.213C195.368 234.129 195.527 234.096 195.682 234.122C199.761 234.904 203.976 234.56 207.874 233.126C211.772 231.692 215.205 229.223 217.805 225.984C218.06 225.734 218.403 225.594 218.761 225.594C219.118 225.594 219.461 225.734 219.716 225.984C222.316 227.984 225.555 228.971 228.828 228.761C232.594 228.993 236.374 228.765 240.084 228.08C246.454 226.726 252.62 222.618 253.729 215.751C253.784 215.544 253.887 215.353 254.028 215.193C254.17 215.033 254.347 214.908 254.545 214.828C254.743 214.747 254.957 214.714 255.17 214.731C255.384 214.747 255.59 214.813 255.773 214.923C266.673 222.614 281.89 220.321 290.079 205.763C290.678 204.696 292.471 205.422 292.076 206.591C287.709 219.554 270.125 226.742 255.968 218.375C254.758 221.596 252.72 224.441 250.059 226.622C247.398 228.803 244.209 230.243 240.813 230.797C236.512 231.621 232.118 231.85 227.755 231.478C224.598 231.483 221.509 230.557 218.875 228.816L218.862 228.809ZM294.685 240.798C289.43 242.005 283.92 241.351 279.094 238.947C277.387 241.579 275.14 243.817 272.501 245.513C269.863 247.21 266.894 248.326 263.791 248.786C260.688 249.247 257.523 249.043 254.505 248.187C251.488 247.33 248.687 245.842 246.289 243.82C242.244 248.448 235.925 252.257 229.672 251.273C228.991 251.168 229.035 250.104 229.672 249.958C232.622 249.476 235.491 248.59 238.199 247.327C240.94 245.908 243.285 243.828 245.021 241.275C245.122 241.103 245.262 240.957 245.429 240.848C245.597 240.739 245.787 240.671 245.985 240.647C246.183 240.624 246.384 240.646 246.572 240.713C246.76 240.78 246.93 240.89 247.069 241.033C249.232 243.011 251.81 244.482 254.614 245.337C257.419 246.192 260.378 246.411 263.277 245.976C266.177 245.542 268.943 244.466 271.373 242.827C273.803 241.187 275.837 239.026 277.326 236.501C277.519 236.187 277.827 235.961 278.183 235.87C278.54 235.779 278.918 235.831 279.237 236.014C284.151 237.989 289.386 239.046 294.681 239.132C295.627 239.281 295.43 240.565 294.697 240.804L294.685 240.798ZM321.926 202.3C313.89 204.778 306.399 200.867 300.144 195.969C296.954 193.73 294.415 190.686 292.786 187.146C291.226 183.436 290.851 179.334 291.713 175.403C291.766 175.224 291.875 175.067 292.024 174.955C292.173 174.844 292.355 174.783 292.541 174.783C292.728 174.783 292.909 174.844 293.058 174.955C293.208 175.067 293.317 175.224 293.369 175.403C295.567 181.63 291.665 185.856 301.752 193.876C304.412 196.369 307.563 198.279 311.003 199.486C314.443 200.692 318.097 201.168 321.732 200.883C321.904 200.887 322.07 200.952 322.199 201.066C322.328 201.18 322.413 201.337 322.438 201.507C322.462 201.678 322.426 201.852 322.335 201.998C322.243 202.145 322.103 202.254 321.939 202.307L321.926 202.3Z" fill="white"/>
</svg>
