<svg width="19" height="19" viewBox="0 0 19 19" fill="none" xmlns="http://www.w3.org/2000/svg">
<path d="M9.57203 5.53857C7.29841 5.53857 5.41455 7.38995 5.41455 9.69605C5.41455 12.0022 7.26593 13.8535 9.57203 13.8535C11.8781 13.8535 13.7295 11.9697 13.7295 9.69605C13.7295 7.42243 11.8456 5.53857 9.57203 5.53857ZM9.57203 12.3594C8.11042 12.3594 6.90864 11.1577 6.90864 9.69605C6.90864 8.23444 8.11042 7.03267 9.57203 7.03267C11.0336 7.03267 12.2354 8.23444 12.2354 9.69605C12.2354 11.1577 11.0336 12.3594 9.57203 12.3594Z" fill="white"/>
<path d="M13.8921 6.38306C14.4123 6.38306 14.8341 5.96135 14.8341 5.44113C14.8341 4.92092 14.4123 4.49921 13.8921 4.49921C13.3719 4.49921 12.9502 4.92092 12.9502 5.44113C12.9502 5.96135 13.3719 6.38306 13.8921 6.38306Z" fill="white"/>
<path d="M16.3276 3.00515C15.4831 2.12819 14.2814 1.67346 12.9172 1.67346H6.22624C3.40046 1.67346 1.5166 3.55732 1.5166 6.3831V13.0416C1.5166 14.4382 1.97133 15.64 2.88077 16.517C3.75774 17.3614 4.92703 17.7837 6.25872 17.7837H12.8847C14.2814 17.7837 15.4506 17.329 16.2951 16.517C17.1721 15.6725 17.6268 14.4707 17.6268 13.074V6.3831C17.6268 5.01893 17.1721 3.84964 16.3276 3.00515ZM16.1977 13.074C16.1977 14.0809 15.8404 14.8929 15.2558 15.4451C14.6711 15.9973 13.8591 16.2896 12.8847 16.2896H6.25872C5.28432 16.2896 4.47231 15.9973 3.88766 15.4451C3.30302 14.8605 3.01069 14.0485 3.01069 13.0416V6.3831C3.01069 5.4087 3.30302 4.59669 3.88766 4.01204C4.43983 3.45988 5.28432 3.16756 6.25872 3.16756H12.9497C13.9241 3.16756 14.7361 3.45988 15.3207 4.04452C15.8729 4.62917 16.1977 5.44118 16.1977 6.3831V13.074Z" fill="white"/>
</svg>
