<svg width="22" height="24" viewBox="0 0 22 24" fill="none" xmlns="http://www.w3.org/2000/svg">
<path d="M10.7877 4.36808C11.0443 4.67552 11.1063 4.74908 11.2634 4.89668C11.3287 4.95812 11.4238 4.94852 11.4242 4.86428C11.2596 4.40888 8.26725 1.34708 10.7877 4.36808Z" fill="#AFF46A"/>
<path d="M10.0262 6.61349C9.86049 6.50957 8.44581 6.10805 7.98105 5.97869C7.71549 5.90477 7.80861 6.02777 7.90425 6.07289C8.38425 6.29897 9.77721 6.75257 9.99141 6.74189C10.0912 6.73685 10.0927 6.65513 10.0262 6.61349Z" fill="#AFF46A"/>
<path d="M12.8764 2.10864C12.8436 2.15196 12.8553 2.10564 12.8394 2.37144C12.9326 4.49676 13.2363 4.23408 13.1826 3.82764C13.1796 3.80508 12.9456 2.16492 12.8764 2.10864Z" fill="#AFF46A"/>
<path d="M21.4814 12.5455C21.1292 12.4024 19.9956 11.6442 19.2807 11.3929C18.6204 11.3797 21.1267 12.499 21.1295 12.5002C21.4656 12.6372 21.6697 12.6219 21.4814 12.5455Z" fill="#AFF46A"/>
<path d="M19.5611 9.41772C19.536 9.45384 19.5572 9.50928 19.5986 9.5244C19.7127 9.56604 21.8249 9.04536 21.7958 8.9274C21.7896 8.90184 19.7234 9.18324 19.5611 9.41772Z" fill="#AFF46A"/>
<path d="M17.9629 13.1494C17.9422 13.1293 17.9003 13.1231 17.8811 13.1395C17.7152 13.2817 19.0816 14.6213 19.2377 14.7691C20.4257 15.8941 18.2157 13.3947 17.9629 13.1494Z" fill="#AFF46A"/>
<path d="M15.3823 11.6967C15.284 11.7971 15.1721 11.882 15.0635 11.9585C14.9999 12.0031 14.8955 11.9731 14.8267 11.9532C14.7165 11.9214 14.7122 11.9381 14.6722 11.9717C14.6249 12.4735 14.0486 13.6148 13.8911 13.698C13.8821 13.6705 13.8847 13.6283 13.8861 13.5889C13.8908 13.4688 13.8859 13.4747 13.8489 13.3603C13.7613 13.4396 13.7773 13.4197 13.7276 13.4929C13.2305 14.2233 12.8407 14.4266 12.0838 14.9057C12.0286 14.9406 11.9936 14.9451 11.9806 14.9384C11.9449 14.9202 11.9746 14.7363 11.9824 14.6969C11.9913 14.6525 12.0004 14.6066 11.9563 14.5823C11.9096 14.5566 11.8766 14.5878 11.8042 14.6563C10.8431 15.567 11.2802 15.0627 10.3917 16.0934C9.72258 16.8697 9.72582 16.8305 9.77562 16.8915C9.81186 16.9361 9.85506 16.9116 9.93306 16.8672C10.0243 16.8153 10.1938 16.7189 10.3825 16.6715C10.8537 16.5533 11.1398 16.7663 11.0445 17.2605L11.0275 17.3489C11.1302 17.3276 11.1092 17.3331 11.1349 17.3232C11.203 17.2871 11.5557 17.1139 11.8051 17.2542C11.945 17.3329 11.9194 17.4578 12.0022 17.48C12.0184 17.4845 12.044 17.4854 12.0728 17.4654C12.3991 17.2385 12.5983 17.16 12.9175 17.2939C12.9591 17.3114 13.0712 17.3552 13.1635 17.5752C13.2131 17.6935 13.2538 17.6297 13.4629 17.6214C13.6875 17.612 13.712 17.8865 13.8909 17.8865C14.2489 17.8865 14.4632 18.1275 14.2455 18.2511C13.7089 18.5552 12.2573 18.6597 11.5917 18.7237C3.87906 19.4637 3.60978 19.3926 3.46974 18.8202C3.4215 18.6237 3.6399 18.4517 3.84378 18.4327C3.94326 18.4235 3.96402 18.3623 3.92766 18.3019C3.8373 18.1505 3.8139 18.0248 3.85842 17.9283C3.90918 17.8182 4.05714 17.7348 4.2645 17.6995L4.34214 17.6736C4.3125 17.5997 4.31502 17.5983 4.27674 17.5514C4.24554 17.5131 4.1985 17.4553 4.13778 17.301C4.09062 17.1812 4.1487 16.9457 4.35042 16.8338C4.52346 16.7382 4.64394 16.8031 4.67934 16.7214C4.69626 16.6823 4.67622 16.6475 4.64574 16.5948C4.1757 15.7832 4.9461 14.9556 5.69334 15.1417C6.16674 15.2597 6.1611 15.492 6.26874 15.4502C6.31146 15.4337 6.31218 15.3871 6.31242 15.3719C6.31974 14.894 6.78738 14.5383 7.33662 14.8037C7.74378 15.0003 7.82802 15.411 7.85574 15.5459C7.87206 15.6261 7.88598 15.6329 7.97694 15.639C8.09178 15.6465 8.3055 15.6607 8.3787 15.8912C8.50086 16.2758 8.21538 16.3375 8.38242 16.4328C8.52702 16.5146 8.55846 16.6026 8.56458 16.74C8.56638 16.7797 8.56866 16.829 8.61714 16.8433C8.67222 16.8594 8.6847 16.8416 8.83902 16.6243C9.15966 16.1723 9.75162 15.4005 10.0918 14.817C10.4601 14.1853 10.474 14.0189 10.5907 13.6052C10.9841 12.2078 11.0258 12.2827 10.9949 12.2108L10.9479 12.1148C10.8524 12.257 10.8919 12.2079 10.8398 12.2517C10.8317 12.2586 10.8316 12.2587 10.828 12.2601C10.8142 12.2659 10.8056 12.2677 10.8029 12.2696C10.7396 12.1053 11.4182 10.835 12.2335 10.371C12.2552 10.3586 12.2692 10.3391 12.2731 10.3161C12.293 10.1966 11.9759 10.0911 12.1303 9.77385C12.1507 9.73173 12.1719 9.67281 12.1906 9.62085C12.2044 9.58269 12.2231 9.53049 12.2297 9.52005C12.3416 9.37845 12.1439 9.31053 12.0874 9.04641C12.0811 9.01677 12.0665 8.99613 12.0443 8.98509C12.0075 8.96685 11.975 8.98197 11.9212 9.00705C11.7418 9.09069 11.6323 9.11781 11.4561 9.16497C11.1089 9.25785 10.9347 9.30453 10.7684 9.24957C10.448 9.14397 10.5253 8.90061 10.6327 8.58081C7.3275 8.62761 3.09678 8.77269 2.86386 8.80209C1.7907 8.93769 1.7169 8.81961 1.7169 9.98949C1.70406 9.98949 1.89798 14.6518 2.41038 17.7617C2.70918 19.5747 2.74266 19.4459 3.4359 19.5146C5.30994 19.7009 11.5589 19.2179 13.4362 19.0713C16.4849 18.8334 16.0304 18.8535 15.9519 17.0238C15.9073 15.9846 15.6553 13.5793 15.3823 11.6967ZM4.36086 14.0717C4.14822 14.055 4.0563 14.0597 3.9801 13.9991C3.60186 13.698 5.27142 13.6889 6.0423 13.6243C6.12954 13.617 6.21294 13.6265 6.29526 13.6533C6.33618 13.6668 6.33438 13.6687 6.33966 13.7102C6.36378 13.9003 6.05346 13.9893 4.36086 14.0717ZM6.05766 12.4068C5.6577 12.4467 4.13814 12.5989 3.74634 12.5582C3.59514 12.5425 3.56334 12.4129 3.6591 12.3549C3.89886 12.21 6.64662 11.9207 6.68142 12.1896C6.6993 12.3271 6.59598 12.3529 6.05766 12.4068ZM7.42602 13.8245C7.33134 13.8185 7.22874 13.8155 7.12698 13.8042C6.89022 13.7779 6.76374 13.6283 7.0293 13.5326C7.33794 13.4215 8.35734 13.3837 8.64102 13.4089C8.78646 13.4217 9.13998 13.7312 7.42602 13.8245ZM9.92706 11.9685C9.70806 12.0625 7.49478 12.3453 7.2921 12.1836C7.07958 12.014 7.90746 11.9271 8.2185 11.8843C10.3895 11.5856 10.0231 11.9274 9.92706 11.9685ZM9.41874 10.7529C9.34614 10.9793 4.83018 11.1887 4.82754 11.1887C3.90078 11.2578 4.28274 11.2472 3.78126 11.2704C3.6981 11.2742 3.59526 11.1738 3.65586 11.0789C3.79986 10.8534 5.76798 10.8446 7.92066 10.6232C9.35322 10.4757 9.49314 10.5211 9.41874 10.7529ZM9.0015 9.47205C9.09258 9.48129 9.27858 9.70605 8.59938 9.73377C8.05506 9.75597 7.26474 9.94041 7.2831 9.69597C7.30314 9.42981 8.73378 9.44493 9.0015 9.47205ZM3.6273 9.79173C3.79302 9.68745 6.1857 9.54069 6.76206 9.59613C6.91326 9.61065 6.96114 9.81381 6.5667 9.84441C6.56394 9.84465 3.82662 10.0932 3.66534 10.046C3.54762 10.0116 3.51786 9.86061 3.6273 9.79173ZM2.37198 9.91653C2.38518 9.48033 2.94522 9.39093 3.0957 9.79497C3.14586 9.92973 3.06642 10.1723 2.8617 10.2655C2.62062 10.3753 2.36466 10.1587 2.37198 9.91653ZM2.91438 10.9286C3.19314 10.971 3.30486 11.3415 3.06606 11.5826C2.86878 11.7818 2.46522 11.6351 2.48142 11.2987C2.4771 11.0666 2.68938 10.8944 2.91438 10.9286ZM3.07242 12.3099C3.30342 12.3618 3.37818 12.7153 3.17946 12.9311C2.93574 13.1954 2.52954 12.9953 2.53674 12.6613C2.54358 12.342 2.79558 12.2479 3.07242 12.3099ZM3.29934 14.2256C3.09414 14.4782 2.70822 14.3941 2.63466 14.0607C2.57778 13.8032 2.76438 13.607 2.92962 13.5998C3.43554 13.5777 3.49302 13.9872 3.29934 14.2256Z" fill="white"/>
<path d="M8.57568 8.37245C8.5836 8.50325 8.4426 8.53517 8.36832 8.46485C8.181 8.28785 8.57568 8.07113 8.57568 8.37245Z" fill="white"/>
<path d="M8.09447 8.31083C8.03915 8.27759 7.95935 8.31227 7.95899 8.39603C7.95875 8.44367 7.98647 8.48687 8.04059 8.48687C8.14043 8.48687 8.16563 8.35367 8.09447 8.31083Z" fill="white"/>
<path d="M15.5527 20.6054C15.5243 20.5854 15.4921 20.5421 15.5083 20.5069C15.5272 20.4658 15.5074 20.4773 16.5889 20.387C17.1605 20.3393 17.0966 20.288 17.6042 20.5549C18.2902 20.9158 16.8923 20.9838 16.4987 21.0326C16.1464 21.0763 16.1681 21.0404 15.5527 20.6054Z" fill="white"/>
<path d="M10.5594 21.3637C10.137 20.8329 10.178 20.9508 11.1061 20.8586C11.5291 20.8166 11.6125 20.82 11.7607 20.9629C12.3999 21.5792 12.4488 21.4821 11.3942 21.5813C10.7234 21.6443 10.8103 21.6789 10.5594 21.3637Z" fill="white"/>
<path d="M13.7517 20.7629C13.5542 20.5886 13.9925 20.6175 14.5651 20.5667C14.7255 20.5524 14.9513 20.4873 15.1508 20.6268C15.6405 20.9691 15.6484 20.9373 15.7043 21.0278C15.7438 21.0918 15.6826 21.15 15.6242 21.1571C14.0867 21.3428 14.4829 21.408 13.7517 20.7629Z" fill="white"/>
<path d="M13.8931 21.1876C14.1096 21.3764 13.88 21.3345 13.003 21.4331C12.6052 21.4779 12.6538 21.4657 12.1073 20.9212C11.9712 20.7857 12.1081 20.7687 12.3142 20.7613C13.3677 20.7236 13.0792 20.4777 13.8931 21.1876Z" fill="white"/>
<path d="M7.78702 21.9043C7.62274 21.9216 7.56322 21.8327 7.19002 21.4707C6.9709 21.258 7.23442 21.2943 7.88518 21.2268C8.38834 21.1746 8.28382 21.1261 8.82646 21.6935C9.04786 21.925 8.63362 21.8153 7.78702 21.9043Z" fill="white"/>
<path d="M9.72474 21.0058C9.88986 20.99 9.95454 21.1081 10.2331 21.4601C10.3395 21.5945 10.4018 21.678 10.2437 21.6922C9.79434 21.7326 9.78726 21.7342 9.6879 21.7369C9.24294 21.7493 9.39258 21.8747 8.9985 21.4492C8.6223 21.043 8.49462 21.1226 9.72474 21.0058Z" fill="white"/>
<path d="M15.0525 20.2003C14.3957 19.7714 14.3047 19.8096 15.0432 19.7581C15.9205 19.6969 16.0931 19.7767 16.7364 20.061C16.7712 20.0763 16.7841 20.1362 16.7216 20.1553C16.6801 20.168 15.8394 20.2198 15.4994 20.2519C15.4872 20.2531 15.2189 20.3089 15.0525 20.2003Z" fill="white"/>
<path d="M8.04856 20.8642C8.1004 20.9158 8.08012 20.9602 8.0398 20.9694C7.93384 20.9932 7.10656 21.0865 7.072 21.0898C6.99904 21.0969 6.8722 21.1248 6.7828 21.0402C6.2158 20.504 6.2446 20.6065 6.9334 20.5201C7.7122 20.4224 7.63372 20.4517 8.04856 20.8642Z" fill="white"/>
<path d="M10.1794 20.7187C10.0538 20.7291 10.0011 20.6389 9.76383 20.3546C9.64035 20.2067 9.76551 20.2185 10.3984 20.159C10.9743 20.1049 10.8575 20.0513 11.3043 20.4841C11.447 20.6223 11.3816 20.6189 10.1794 20.7187Z" fill="white"/>
<path d="M11.9019 20.5695C11.7244 20.5418 11.7489 20.5364 11.393 20.1964C11.3266 20.1331 11.3731 20.0708 11.441 20.0625C11.4438 20.0622 12.0594 19.9953 12.0624 19.9953C12.3172 19.9791 12.4884 19.9401 12.6338 20.0647C13.2829 20.6208 13.0911 20.3847 11.9019 20.5695Z" fill="white"/>
<path d="M5.43721 21.2726C5.29981 21.2647 5.25181 21.2048 4.99333 20.9744C4.63237 20.6526 4.79857 20.7026 5.32777 20.6564C5.95357 20.6018 5.82181 20.5724 6.27397 21.0086C6.50857 21.2349 6.15985 21.1385 5.43721 21.2726Z" fill="white"/>
<path d="M13.034 20.0877C12.9875 20.0465 12.942 19.9896 12.992 19.953C13.0857 19.8843 13.0341 19.9325 13.9713 19.8306C14.0464 19.8225 14.0238 19.8182 14.5279 20.1557C14.6077 20.2092 14.6276 20.2361 14.6177 20.2865C14.606 20.3469 14.5162 20.3326 14.1516 20.3644C13.3475 20.4346 13.5045 20.5048 13.034 20.0877Z" fill="white"/>
<path d="M9.11839 20.2908C9.30823 20.3111 9.29587 20.2951 9.43639 20.4529C9.79255 20.8531 9.71971 20.7727 9.05035 20.8449C8.65471 20.8877 8.53867 20.9371 8.37571 20.7624C7.97743 20.3352 7.81771 20.4017 9.11839 20.2908Z" fill="white"/>
<path d="M5.5886 21.5785C5.47808 21.4677 5.69864 21.4535 5.83196 21.4378C6.49832 21.3597 6.56552 21.3311 6.69968 21.4449C6.7976 21.528 7.05044 21.7396 7.12568 21.8437C7.16216 21.8943 7.04888 21.9384 6.96596 21.9406C5.83328 21.9707 6.02072 22.0121 5.5886 21.5785Z" fill="white"/>
<path d="M21.0154 21.5801C21.0179 20.8468 20.7298 20.7796 19.8616 20.3708C16.2239 18.6582 16.1685 19.4814 16.498 19.029C16.6947 18.759 16.6577 18.449 16.588 17.1306C16.5176 15.7987 16.4163 14.3642 16.255 12.9617C16.1523 12.9178 16.0971 12.8149 16.0662 12.7075C16.2248 13.9969 16.368 15.5414 16.4621 17.2996C16.5473 18.8921 16.6448 19.0841 15.5417 19.2761C14.4716 19.4626 8.17888 19.9224 8.17612 19.9224C2.23504 20.0359 2.22676 20.3928 1.9918 19.2166C1.7404 17.9579 1.4536 15.1838 1.45324 15.1814C1.39516 14.671 1.10404 10.1236 1.1476 9.25416C1.17868 8.63412 1.30816 8.442 2.09488 8.35824C4.18144 8.13588 9.70576 8.05368 10.8388 8.05632C10.865 7.99692 10.8924 7.93632 10.921 7.87524C7.78708 7.8792 3.86992 8.02056 2.46208 8.15388C1.58008 8.2374 1.04356 8.23668 0.995442 9.12684C0.865242 11.5402 1.40932 19.3144 2.09248 19.9639C2.23132 20.0959 2.33584 20.1124 2.43676 20.1763C2.29 20.2322 2.11444 20.254 2.12572 20.486C2.1616 21.2245 2.25244 21.5263 2.98684 22.1323C5.89792 24.5346 4.71016 23.5187 19.901 22.2824C21.1752 22.1788 21.0138 22.0465 21.0154 21.5801ZM10.1589 22.227C8.87536 22.3817 8.23264 22.4591 8.23084 22.4593C7.90564 22.52 5.8504 22.5625 5.8504 22.5562C4.98676 22.5562 4.70152 22.4555 4.1632 22.0865C2.85268 21.188 2.58448 20.8042 2.365 20.554C1.89856 20.0225 3.19216 20.6221 14.2799 19.5826C16.1344 19.4087 16.064 18.9782 18.4646 19.9718C22.6562 21.7068 21.7617 20.8285 10.1589 22.227Z" fill="white"/>
<path d="M20.552 1.00135C20.4835 0.695113 20.0182 0.776593 19.7158 0.860113C18.9966 1.05859 17.5544 1.59031 16.2699 2.54011C15.7446 2.92855 14.7775 4.01191 14.521 4.34491C13.6546 5.47015 13.7098 5.64847 13.6017 5.62855C13.3165 5.57587 12.4932 5.71255 11.8995 6.24967C11.2364 6.84967 10.4482 8.65447 10.4809 9.00811C10.4965 9.17707 10.6078 9.25975 10.7497 9.30655C10.9488 9.37231 11.1422 9.31039 11.5675 9.19735C11.9672 9.09115 12.0146 8.99215 12.0289 9.05911C12.0884 9.33679 12.2594 9.38587 12.1828 9.48295C12.1612 9.51043 12.1159 9.66643 12.0764 9.74767C11.8982 10.1142 12.2805 10.2753 12.204 10.3189C11.2773 10.8464 10.4343 12.4913 10.8514 12.3154C10.8762 12.305 10.8734 12.2964 10.9332 12.257C10.9334 12.2414 10.9318 12.2471 10.9398 12.2345C10.9554 12.2708 10.907 12.2606 10.533 13.589C10.4178 13.998 10.4061 14.1587 10.04 14.7867C9.86216 15.0917 9.4784 15.65 9.2252 15.9902C8.46524 17.0112 8.67596 16.8438 8.606 16.6049C8.5544 16.4285 8.3942 16.3794 8.38868 16.3646C8.37992 16.3407 8.53484 16.1846 8.43584 15.8729C8.3294 15.538 7.96508 15.5934 7.92416 15.5715C7.90844 15.563 7.87208 14.9956 7.36256 14.7496C6.761 14.4591 6.26 14.8643 6.25232 15.371C6.25076 15.4761 6.18596 15.2025 5.70776 15.0834C5.03264 14.9153 4.26644 15.5427 4.47932 16.3602C4.5386 16.5879 4.66256 16.6932 4.61432 16.7045C4.54844 16.7199 4.4486 16.7109 4.32128 16.7813C4.08728 16.9108 4.025 17.1785 4.08176 17.3229C4.17584 17.5618 4.2422 17.5859 4.26332 17.6386C4.25072 17.6433 3.51452 17.7278 3.87596 18.3327C3.88856 18.3538 3.89408 18.3678 3.83816 18.373C3.59516 18.3954 3.3542 18.6012 3.41132 18.8344C3.56564 19.4645 3.85928 19.5388 11.5975 18.7834C12.3475 18.7102 13.7324 18.6108 14.2749 18.3033C14.532 18.1576 14.352 17.8262 13.8906 17.8265C13.7566 17.8265 13.7169 17.5515 13.4604 17.5616C13.2019 17.5716 13.254 17.6313 13.208 17.527C13.152 17.4 13.0711 17.2935 12.9405 17.2386C12.5823 17.0882 12.3513 17.1987 12.0385 17.4161C11.98 17.4567 12.0042 17.2973 11.8344 17.2019C11.529 17.0302 11.106 17.2713 11.1033 17.2719C11.2095 16.7216 10.8676 16.4878 10.3678 16.6132C9.81608 16.7517 9.46004 17.2713 10.4203 16.152C11.3262 15.0962 10.8805 15.6142 11.8454 14.6997C12.0024 14.551 11.8902 14.6709 11.9052 14.9032C11.9109 14.9921 11.9798 15.0423 12.1159 14.9561C12.7858 14.532 12.9535 14.4324 13.1773 14.2256C13.6047 13.8305 13.7884 13.4956 13.8204 13.4668C13.8385 13.5227 13.8148 13.6394 13.8302 13.7027C13.9236 14.0873 14.6822 12.5001 14.7292 12.0052C14.7337 11.9586 14.9594 12.1048 15.098 12.0074C15.2343 11.9116 15.3663 11.811 15.4766 11.6851C15.5688 11.5797 15.6926 11.7259 15.8761 11.6448C15.9367 11.6179 15.8588 11.8832 15.9279 12.3201C15.9476 12.4446 15.9898 12.7155 16.0461 12.8279C16.4965 13.7272 18.1968 11.6052 18.5928 10.199C18.728 9.71887 18.6568 9.17263 18.5176 8.82079C18.4752 8.71351 20.2462 6.74767 20.5468 4.15303C20.6547 3.22219 20.7822 2.03047 20.552 1.00135ZM11.9974 8.91319C11.6835 8.99995 10.5691 9.43255 10.648 8.91979C10.7103 8.51491 11.1708 7.46011 11.8123 6.63319C12.4982 5.74915 13.4221 5.80663 13.4221 5.79559C13.6213 5.79559 13.5946 5.67355 12.9381 6.91927C12.7911 7.19827 12.2168 8.42071 12.0602 8.85547C12.0481 8.88919 12.0334 8.90323 11.9974 8.91319ZM13.969 13.5C13.9573 13.4591 13.9972 13.1528 13.9893 13.0184C13.9872 12.9819 13.9435 12.8763 13.9038 12.9284C13.8338 13.02 13.4106 14.195 12.0676 14.8602C12.0484 14.8317 12.1266 14.3195 11.9683 14.4347C10.9354 15.1866 9.40628 17.1396 9.48884 17.2132C9.58208 17.2964 9.68828 17.0326 10.1108 16.845C11.2808 16.3256 10.877 17.3883 11.0491 17.4005C11.1064 17.4046 11.2035 17.3104 11.3539 17.2708C11.546 17.2202 11.8048 17.2371 11.8803 17.4272C12.0202 17.7797 12.086 17.4155 12.5258 17.3098C12.7494 17.256 12.9794 17.3496 13.086 17.6159C13.1131 17.6837 13.1269 17.7696 13.2372 17.7358C13.3782 17.6926 13.5121 17.6118 13.635 17.7467C13.7466 17.8694 13.7247 17.9538 13.8506 17.9494C14.2536 17.9352 15.1962 18.3242 12.1267 18.6083C7.38704 19.047 4.27484 19.3678 3.76712 19.1192C3.59972 19.0372 3.49664 18.8028 3.6302 18.6322C3.77912 18.442 4.10516 18.5055 4.05536 18.404C3.96056 18.2103 3.90188 18.1456 3.91028 17.9692C3.91472 17.8754 4.16348 17.7724 4.27904 17.7596C4.31168 17.756 4.34156 17.7617 4.46948 17.7698C4.54844 17.7747 4.56164 17.7179 4.5098 17.6746C4.29848 17.4983 4.0706 17.1094 4.32404 16.941C4.58516 16.7676 4.8428 16.905 4.87652 16.8483C4.8968 16.8142 4.88336 16.815 4.70228 16.5034C4.30592 15.8213 4.9898 15.0747 5.66552 15.2362C6.23204 15.3717 6.18152 15.6447 6.299 15.6598C6.3668 15.6686 6.36944 15.6395 6.37748 15.4535C6.40952 14.7128 7.2236 14.5955 7.62488 15.1613C7.76036 15.3524 7.74944 15.4565 7.79192 15.6417C7.80764 15.71 8.213 15.66 8.29808 15.8932C8.42216 16.2334 8.057 16.3916 8.26436 16.4636C8.36864 16.4997 8.45228 16.5459 8.46488 16.6523C8.47364 16.7261 8.49896 16.7852 8.4854 16.832C8.41148 17.0885 8.39852 17.0782 8.4182 17.1C8.53412 17.2281 9.35588 15.9704 9.71876 15.5075C10.1571 14.9484 10.4251 14.3918 10.6432 13.7156C10.8188 13.1715 11.1246 11.9994 11.1249 11.9692C11.1253 11.9413 11.0989 11.9256 11.0736 11.9391C11.0247 11.9652 10.9778 12.0354 10.937 12.0588C10.9302 11.9809 11.2166 11.5063 11.3101 11.3773C11.714 10.8205 12.217 10.4632 12.2774 10.4078C12.3583 10.3335 13.1156 11.3244 14.5572 11.9112C14.7376 11.9846 14.1397 13.352 13.969 13.5ZM15.1011 11.8402C14.4933 11.9872 12.5277 10.5265 12.2232 10.0951C12.1159 9.94315 12.1774 9.80215 12.26 9.64747C12.3223 9.53059 12.3094 9.52891 12.3398 9.55699C13.3221 10.4623 14.0072 10.9652 15.36 11.5832C15.407 11.6047 15.2144 11.8128 15.1011 11.8402ZM15.2342 11.3594C13.6977 10.6269 12.5605 9.57691 12.3331 9.29527C12.0812 8.98339 12.1899 8.86747 12.4149 8.40007C12.8331 7.53175 12.7227 7.63219 12.8577 7.78507C13.7926 8.84347 15.7498 10.0092 16.6611 10.4437C16.8778 10.547 16.9177 10.3996 16.3821 10.9857C15.8842 11.5306 15.8941 11.6739 15.2342 11.3594ZM17.7644 11.5905C17.3926 12.0956 17.0413 12.5644 16.4904 12.8535C15.9582 13.1328 16.049 11.5353 16.0786 11.506C18.4102 9.19591 18.208 9.07027 18.4092 8.93803C18.4546 9.01207 18.5062 9.53659 18.5096 9.53695C18.4215 10.3411 18.3352 10.815 17.7644 11.5905ZM20.3036 4.54183C19.8699 6.73687 18.4844 8.73331 16.9567 10.3683C16.7626 10.5759 12.7477 7.73527 12.8668 7.47703C13.7667 5.52643 15.2769 3.21043 17.1418 2.20111C17.5111 2.36575 18.3403 2.40859 19.9935 4.14007C20.2958 4.45663 20.32 4.45867 20.3036 4.54183ZM20.3324 4.32379C20.22 4.18171 19.6545 3.18331 17.9992 2.39527C17.5573 2.18479 17.3175 2.14507 17.2742 2.12671C17.3935 1.97359 19.3057 1.07419 20.0636 0.929833C20.3934 0.867073 20.3707 0.932833 20.4158 1.21291C20.5831 2.24983 20.4525 3.95119 20.3324 4.32379Z" fill="white"/>
<path d="M12.4913 11.0576C12.4147 10.9873 12.4133 10.964 12.2059 11.256C11.7347 11.9194 11.4425 12.6325 11.6517 12.5036C11.8358 12.3903 11.7669 12.3253 11.3796 13.362C11.1407 14.0015 11.1453 13.9929 11.1925 14.0209C11.2433 14.051 11.2674 13.994 11.4237 13.8371C11.424 13.8057 11.4341 13.814 11.4323 13.8307C11.432 13.8335 11.177 14.3725 11.1569 14.4254C10.9901 14.8622 12.5647 13.3143 12.8989 13.0191C12.9057 13.1319 12.8723 13.3585 12.9494 13.2759C13.1772 13.0319 13.499 12.5004 13.6635 12.1937C13.8853 11.7802 13.6106 12.0858 12.4913 11.0576Z" fill="white"/>
<path d="M15.435 4.76983C14.8977 5.46199 14.9378 6.47383 15.5805 7.11511C16.3032 7.83619 17.5126 7.88959 18.2399 7.01251C18.9137 6.19999 18.7691 5.10523 18.0558 4.47799C17.2463 3.76603 16.0276 4.00651 15.435 4.76983ZM15.4485 6.74719C15.0995 6.16723 15.117 5.49451 15.4361 4.98079C15.955 4.14535 17.0812 3.94555 17.8104 4.45135C18.5488 4.96339 18.8433 6.03751 18.2076 6.87751C17.4837 7.83439 16.0551 7.75531 15.4485 6.74719Z" fill="white"/>
<path d="M17.717 4.77002C16.8248 4.08386 15.4935 4.70859 15.4987 5.8805C15.474 6.22586 15.7302 6.81219 16.2809 7.09011C17.6539 7.78311 19.0401 5.7875 17.717 4.77002ZM16.0382 5.37506C16.1604 5.2325 17.0157 4.9589 17.115 4.98326C17.1368 4.98866 17.1468 5.0117 17.1179 5.03558C17.1102 5.04194 16.2629 5.4719 16.0543 5.47202C16.0043 5.47202 15.9817 5.44106 16.0382 5.37506ZM17.7797 6.15026C17.7428 6.2045 16.5047 6.73407 16.4237 6.72855C16.4117 6.72543 16.353 6.7301 16.3365 6.6833C16.3267 6.65582 16.3401 6.62594 16.3577 6.61178C16.6039 6.4127 17.8757 6.00638 17.7797 6.15026ZM17.6915 5.49026C15.9656 6.15926 15.918 6.18314 15.897 6.17246C15.4805 5.96426 17.6846 5.34878 17.8547 5.36138C17.8773 5.36246 17.8838 5.37278 17.8853 5.38142C17.888 5.39846 17.8905 5.4131 17.6915 5.49026Z" fill="white"/>
</svg>
