<svg width="21" height="21" viewBox="0 0 21 21" fill="none" xmlns="http://www.w3.org/2000/svg">
<path fill-rule="evenodd" clip-rule="evenodd" d="M16.6828 4.5943C15.1064 3.01615 13.0101 2.14667 10.7767 2.14575C6.17473 2.14575 2.42924 5.89094 2.42744 10.4943C2.4268 11.9659 2.81126 13.4022 3.54192 14.6683L2.35742 18.9948L6.78345 17.8338C8.00293 18.4989 9.37597 18.8495 10.7733 18.85H10.7767C10.7765 18.85 10.777 18.85 10.7767 18.85C15.3782 18.85 19.124 15.1044 19.1259 10.501C19.1267 8.27004 18.2591 6.17238 16.6828 4.5943ZM10.7767 17.4399H10.7739C9.52872 17.4395 8.30737 17.1049 7.2419 16.4726L6.98853 16.3223L4.36206 17.0112L5.06313 14.4505L4.89812 14.1879C4.20348 13.083 3.83661 11.806 3.83715 10.4948C3.83864 6.66865 6.95176 3.55587 10.7795 3.55587C12.633 3.55644 14.3754 4.27924 15.6856 5.59094C16.9958 6.90263 17.7169 8.64617 17.7162 10.5004C17.7146 14.3268 14.6016 17.4399 10.7767 17.4399Z" fill="white"/>
<path fill-rule="evenodd" clip-rule="evenodd" d="M14.5826 12.2426C14.374 12.1382 13.3483 11.6336 13.1571 11.5639C12.9659 11.4943 12.8268 11.4595 12.6877 11.6683C12.5486 11.8771 12.1488 12.347 12.0271 12.4863C11.9055 12.6255 11.7837 12.643 11.5752 12.5385C11.3666 12.434 10.6944 12.2138 9.89754 11.5031C9.27733 10.9498 8.85867 10.2667 8.73693 10.0578C8.61526 9.84902 8.72398 9.73613 8.82844 9.63209C8.92228 9.53858 9.03707 9.38844 9.14139 9.2666C9.24567 9.14483 9.28044 9.05773 9.34999 8.91861C9.41953 8.77935 9.3848 8.65751 9.3326 8.55312C9.28044 8.4487 8.86324 7.42187 8.68941 7.00409C8.52003 6.59736 8.34806 6.65247 8.21999 6.64599C8.09849 6.63993 7.95923 6.63867 7.82017 6.63867C7.68111 6.63867 7.45506 6.6909 7.26388 6.8997C7.07266 7.10857 6.53369 7.61332 6.53369 8.64005C6.53369 9.66693 7.28123 10.6589 7.38555 10.7981C7.48983 10.9374 8.8566 13.0445 10.9493 13.9481C11.447 14.1631 11.8356 14.2915 12.1386 14.3876C12.6384 14.5464 13.0931 14.524 13.4526 14.4702C13.8534 14.4103 14.6869 13.9656 14.8607 13.4783C15.0346 12.991 15.0346 12.5732 14.9824 12.4863C14.9303 12.3993 14.7912 12.347 14.5826 12.2426Z" fill="white"/>
</svg>
